<svg width="200" height="200" viewBox="0 0 200 200" xmlns="http://www.w3.org/2000/svg">
  <rect width="200" height="200" fill="#f5f5f5"/>
  <g fill="#666">
    <!-- 건물 -->
    <rect x="40" y="120" width="120" height="60" fill="#999"/>
    <rect x="60" y="100" width="80" height="20" fill="#999"/>
    <rect x="70" y="80" width="60" height="20" fill="#999"/>
    
    <!-- 창문 -->
    <rect x="50" y="130" width="15" height="15" fill="#fff"/>
    <rect x="75" y="130" width="15" height="15" fill="#fff"/>
    <rect x="100" y="130" width="15" height="15" fill="#fff"/>
    <rect x="125" y="130" width="15" height="15" fill="#fff"/>
    
    <!-- 문 -->
    <rect x="85" y="150" width="20" height="30" fill="#fff"/>
    
    <!-- 크레인 -->
    <rect x="150" y="60" width="8" height="80" fill="#666"/>
    <rect x="130" y="60" width="40" height="8" fill="#666"/>
    <circle cx="170" cy="68" r="8" fill="#666"/>
    
    <!-- 태양 -->
    <circle cx="30" cy="30" r="15" fill="#ffd700"/>
    <g stroke="#ffd700" stroke-width="2">
      <line x1="30" y1="10" x2="30" y2="5"/>
      <line x1="30" y1="55" x2="30" y2="50"/>
      <line x1="10" y1="30" x2="5" y2="30"/>
      <line x1="55" y1="30" x2="50" y2="30"/>
    </g>
  </g>
  <text x="100" y="190" text-anchor="middle" font-family="Arial" font-size="12" fill="#666">
    Construction Site
  </text>
</svg>
